<svg viewBox="0 0 24 24" height="24" width="24" xmlns="http://www.w3.org/2000/svg"><g transform="matrix(1.7142857142857142,0,0,1.7142857142857142,0,0)"><path d="M12.414,4.9a.752.752,0,0,0-.664-.4h-3a.25.25,0,0,1-.25-.25V.75A.75.75,0,0,0,7.132.325l-5.5,8A.75.75,0,0,0,2.25,9.5h3a.25.25,0,0,1,.25.25v3.5a.751.751,0,0,0,.527.717A.782.782,0,0,0,6.25,14a.748.748,0,0,0,.618-.325l5.5-8A.753.753,0,0,0,12.414,4.9Z" fill="#ffe300" stroke="none" stroke-linecap="round" stroke-linejoin="round" stroke-width="0"></path></g></svg>