<svg viewBox="0 0 24 24" height="24" width="24" xmlns="http://www.w3.org/2000/svg"><g transform="matrix(1.7142857142857142,0,0,1.7142857142857142,0,0)"><path d="M13.439,5.416a1.5,1.5,0,0,0,.254-2.106l-.98-1.25A3.5,3.5,0,0,0,7.8,1.466l-.64.5a.25.25,0,0,0-.043.351l1.263,1.61A.75.75,0,0,1,7.2,4.855L5.936,3.245a.251.251,0,0,0-.167-.094.249.249,0,0,0-.184.052L3.56,4.79a.246.246,0,0,0-.093.167.249.249,0,0,0,.051.184L4.781,6.75a.75.75,0,1,1-1.18.926L2.338,6.067a.25.25,0,0,0-.351-.043l-.66.517a3.5,3.5,0,0,0-.594,4.914l.98,1.25a1.5,1.5,0,0,0,2.106.255Z" fill="#c89000" stroke="none" stroke-linecap="round" stroke-linejoin="round" stroke-width="0"></path></g></svg>