<svg viewBox="0 0 24 24" height="24" width="24" xmlns="http://www.w3.org/2000/svg"><g transform="matrix(1.7142857142857142,0,0,1.7142857142857142,0,0)"><path d="M9.25.5a2.756,2.756,0,0,0-.765.108.25.25,0,0,0-.142.374,4.243,4.243,0,0,1,0,4.536.25.25,0,0,0,.142.374A2.75,2.75,0,1,0,9.25.5Z" fill="#000000" stroke="none" stroke-linecap="round" stroke-linejoin="round" stroke-width="0"></path><path d="M9.717,7.522c-.114-.011-.228-.017-.34-.02a.25.25,0,0,0-.188.422A6.58,6.58,0,0,1,11,12.454a2.627,2.627,0,0,1-.1.727.249.249,0,0,0,.04.219.252.252,0,0,0,.2.1H13a1,1,0,0,0,1-1v-.046A4.889,4.889,0,0,0,9.717,7.522Z" fill="#000000" stroke="none" stroke-linecap="round" stroke-linejoin="round" stroke-width="0"></path><path d="M2.000 3.250 A2.750 2.750 0 1 0 7.500 3.250 A2.750 2.750 0 1 0 2.000 3.250 Z" fill="#000000" stroke="none" stroke-linecap="round" stroke-linejoin="round" stroke-width="0"></path><path d="M0,12.5a1,1,0,0,0,1,1H8.5a1,1,0,0,0,1-1v-.046A4.889,4.889,0,0,0,5.217,7.522,4.752,4.752,0,0,0,0,12.25Z" fill="#000000" stroke="none" stroke-linecap="round" stroke-linejoin="round" stroke-width="0"></path></g></svg>