<svg viewBox="0 0 24 24" height="24" width="24" xmlns="http://www.w3.org/2000/svg"><g transform="matrix(1.7142857142857142,0,0,1.7142857142857142,0,0)"><path d="M10.484,5.346,9.484.6A.751.751,0,0,0,8.75,0H5.25a.751.751,0,0,0-.734.6l-1,4.75a.75.75,0,0,0,.734.9h5.5a.75.75,0,0,0,.734-.9Zm-3.122-3-.95,1A.5.5,0,0,1,6.05,3.5a.517.517,0,0,1-.231-.056A.5.5,0,0,1,5.56,2.9l.2-1a.5.5,0,0,1,.49-.4H7a.5.5,0,0,1,.362.844Z" fill="#929292" stroke="none" stroke-linecap="round" stroke-linejoin="round" stroke-width="0"></path><path d="M6.984,13.1l-1-4.75a.75.75,0,0,0-.734-.6H1.75a.751.751,0,0,0-.734.6l-1,4.75A.75.75,0,0,0,.75,14h5.5a.75.75,0,0,0,.734-.9Zm-3.122-3-.95,1a.5.5,0,0,1-.362.156.517.517,0,0,1-.231-.056.5.5,0,0,1-.259-.542l.2-1a.5.5,0,0,1,.49-.4H3.5a.5.5,0,0,1,.362.844Z" fill="#929292" stroke="none" stroke-linecap="round" stroke-linejoin="round" stroke-width="0"></path><path d="M13.984,13.1l-1-4.75a.751.751,0,0,0-.734-.6H8.75a.75.75,0,0,0-.734.6l-1,4.75a.75.75,0,0,0,.734.9h5.5a.75.75,0,0,0,.734-.9Zm-3.122-3-.95,1a.5.5,0,0,1-.362.156.514.514,0,0,1-.231-.056.5.5,0,0,1-.26-.542l.2-1a.5.5,0,0,1,.49-.4h.75a.5.5,0,0,1,.362.844Z" fill="#929292" stroke="none" stroke-linecap="round" stroke-linejoin="round" stroke-width="0"></path></g></svg>