<svg viewBox="0 0 24 24" height="24" width="24" xmlns="http://www.w3.org/2000/svg"><g transform="matrix(1.7142857142857142,0,0,1.7142857142857142,0,0)"><path d="M8.2,7.389H5.8a.25.25,0,0,0-.25.25v2.04a.25.25,0,0,0,.245.25l2.4.047a1.294,1.294,0,0,0,0-2.587Z" fill="#ea8b19" stroke="none" stroke-linecap="round" stroke-linejoin="round" stroke-width="0"></path><path d="M8.223,6.389a1.018,1.018,0,0,0,0-2.035H5.845A.248.248,0,0,0,5.6,4.6L5.564,6.134a.247.247,0,0,0,.071.18.251.251,0,0,0,.179.075H8.223Z" fill="#ea8b19" stroke="none" stroke-linecap="round" stroke-linejoin="round" stroke-width="0"></path><path d="M7,0a7,7,0,1,0,7,7A7,7,0,0,0,7,0ZM8.862,10.877v.82a.5.5,0,0,1-1,0v-.721H6.6V11.7a.5.5,0,0,1-1,0v-.721h0A1.053,1.053,0,0,1,4.549,9.924V4.405A1.052,1.052,0,0,1,5.6,3.354h0v-.8a.5.5,0,1,1,1,0v.8H7.862v-.8a.5.5,0,1,1,1,0v.905a2.015,2.015,0,0,1,.723,3.4,2.292,2.292,0,0,1-.723,4.02Z" fill="#ea8b19" stroke="none" stroke-linecap="round" stroke-linejoin="round" stroke-width="0"></path></g></svg>