<svg width="24" height="17" viewBox="0 0 24 17" fill="none" xmlns="http://www.w3.org/2000/svg">
<mask id="path-1-inside-1" fill="white">
<path fill-rule="evenodd" clip-rule="evenodd" d="M13.5523 15.7734V16.4533L23.9999 16.4079L23.0254 14.2323L22.3682 10.7875L21.0311 9.20113L20.6685 5.75637L17.9036 4.66856L14.8441 0.657224L12.3058 0L9.20103 1.76771L7.68262 6.57224L10.0396 9.20113L11.8979 9.97167L12.3058 12.2153L12.9631 13.0992V13.6657L13.5523 15.7734ZM11.6941 1.47309L11.9207 1.81303L14.0057 2.17564L15.9093 4.5779L16.136 4.3966L14.1643 1.35977L11.6941 1.47309Z"/>
</mask>
<path fill-rule="evenodd" clip-rule="evenodd" d="M13.5523 15.7734V16.4533L23.9999 16.4079L23.0254 14.2323L22.3682 10.7875L21.0311 9.20113L20.6685 5.75637L17.9036 4.66856L14.8441 0.657224L12.3058 0L9.20103 1.76771L7.68262 6.57224L10.0396 9.20113L11.8979 9.97167L12.3058 12.2153L12.9631 13.0992V13.6657L13.5523 15.7734ZM11.6941 1.47309L11.9207 1.81303L14.0057 2.17564L15.9093 4.5779L16.136 4.3966L14.1643 1.35977L11.6941 1.47309Z" fill="#4B4B4B"/>
<path d="M13.5523 16.4533H13.2223V16.7847L13.5537 16.7833L13.5523 16.4533ZM13.5523 15.7734H13.8823V15.7281L13.8701 15.6845L13.5523 15.7734ZM23.9999 16.4079L24.0013 16.7379L24.5083 16.7357L24.3011 16.273L23.9999 16.4079ZM23.0254 14.2323L22.7012 14.2941L22.7085 14.332L22.7242 14.3672L23.0254 14.2323ZM22.3682 10.7875L22.6923 10.7257L22.6761 10.6409L22.6205 10.5749L22.3682 10.7875ZM21.0311 9.20113L20.7029 9.23568L20.7135 9.33638L20.7787 9.41381L21.0311 9.20113ZM20.6685 5.75637L20.9966 5.72183L20.9757 5.52262L20.7893 5.44929L20.6685 5.75637ZM17.9036 4.66856L17.6412 4.86868L17.697 4.94192L17.7828 4.97564L17.9036 4.66856ZM14.8441 0.657224L15.1065 0.457096L15.0373 0.366363L14.9268 0.337759L14.8441 0.657224ZM12.3058 0L12.3886 -0.319465L12.2589 -0.353029L12.1426 -0.286778L12.3058 0ZM9.20103 1.76771L9.03776 1.48093L8.92535 1.54493L8.88637 1.66826L9.20103 1.76771ZM7.68262 6.57224L7.36796 6.47279L7.31122 6.65233L7.43691 6.79253L7.68262 6.57224ZM10.0396 9.20113L9.79385 9.42142L9.8439 9.47725L9.91316 9.50597L10.0396 9.20113ZM11.8979 9.97167L12.2226 9.91264L12.1904 9.73571L12.0243 9.66684L11.8979 9.97167ZM12.3058 12.2153L11.9812 12.2743L11.995 12.3503L12.041 12.4122L12.3058 12.2153ZM12.9631 13.0992H13.2931V12.9899L13.2279 12.9022L12.9631 13.0992ZM12.9631 13.6657H12.6331V13.711L12.6453 13.7546L12.9631 13.6657ZM11.9207 1.81303L11.6461 1.99608L11.7246 2.11389L11.8641 2.13815L11.9207 1.81303ZM11.6941 1.47309L11.6789 1.14343L11.0955 1.1702L11.4195 1.65614L11.6941 1.47309ZM14.0057 2.17564L14.2643 1.97068L14.1862 1.87207L14.0622 1.85052L14.0057 2.17564ZM15.9093 4.5779L15.6507 4.78286L15.8566 5.04269L16.1155 4.83559L15.9093 4.5779ZM16.136 4.3966L16.3421 4.65429L16.5755 4.46758L16.4128 4.2169L16.136 4.3966ZM14.1643 1.35977L14.4411 1.18007L14.3381 1.02145L14.1492 1.03012L14.1643 1.35977ZM13.8823 16.4533V15.7734H13.2223V16.4533H13.8823ZM23.9985 16.0779L13.5509 16.1233L13.5537 16.7833L24.0013 16.7379L23.9985 16.0779ZM22.7242 14.3672L23.6987 16.5428L24.3011 16.273L23.3266 14.0974L22.7242 14.3672ZM22.044 10.8494L22.7012 14.2941L23.3495 14.1705L22.6923 10.7257L22.044 10.8494ZM20.7787 9.41381L22.1158 11.0002L22.6205 10.5749L21.2834 8.98846L20.7787 9.41381ZM20.3403 5.79092L20.7029 9.23568L21.3592 9.16659L20.9966 5.72183L20.3403 5.79092ZM17.7828 4.97564L20.5476 6.06346L20.7893 5.44929L18.0244 4.36147L17.7828 4.97564ZM14.5817 0.857352L17.6412 4.86868L18.166 4.46843L15.1065 0.457096L14.5817 0.857352ZM12.2231 0.319465L14.7614 0.976688L14.9268 0.337759L12.3886 -0.319465L12.2231 0.319465ZM9.36431 2.05448L12.4691 0.286778L12.1426 -0.286778L9.03776 1.48093L9.36431 2.05448ZM7.99728 6.67168L9.51569 1.86715L8.88637 1.66826L7.36796 6.47279L7.99728 6.67168ZM10.2853 8.98084L7.92833 6.35195L7.43691 6.79253L9.79385 9.42142L10.2853 8.98084ZM12.0243 9.66684L10.166 8.8963L9.91316 9.50597L11.7715 10.2765L12.0243 9.66684ZM12.6305 12.1563L12.2226 9.91264L11.5732 10.0307L11.9812 12.2743L12.6305 12.1563ZM13.2279 12.9022L12.5707 12.0184L12.041 12.4122L12.6983 13.2961L13.2279 12.9022ZM13.2931 13.6657V13.0992H12.6331V13.6657H13.2931ZM13.8701 15.6845L13.2809 13.5769L12.6453 13.7546L13.2345 15.8622L13.8701 15.6845ZM12.1953 1.62998L11.9686 1.29004L11.4195 1.65614L11.6461 1.99608L12.1953 1.62998ZM14.0622 1.85052L11.9772 1.48791L11.8641 2.13815L13.9491 2.50076L14.0622 1.85052ZM16.168 4.37295L14.2643 1.97068L13.747 2.38059L15.6507 4.78286L16.168 4.37295ZM15.9298 4.13891L15.7032 4.32022L16.1155 4.83559L16.3421 4.65429L15.9298 4.13891ZM13.8875 1.53947L15.8592 4.5763L16.4128 4.2169L14.4411 1.18007L13.8875 1.53947ZM11.7092 1.80274L14.1794 1.68943L14.1492 1.03012L11.6789 1.14343L11.7092 1.80274Z" fill="black" mask="url(#path-1-inside-1)"/>
<path d="M1.61814 14.3429L1.65321 14.3042L1.65954 14.2523L1.87606 12.4767L3.77502 11.4072L3.88793 11.3436L3.85291 11.2188L3.49644 9.94894V7.97067L5.35687 5.81427L7.07369 6.92393L9.41465 9.71508L9.45027 9.75755L9.50431 9.7699L10.9733 10.1057L11.167 12.3879L11.1723 12.4502L11.2176 12.4933L12.1612 13.393L12.7982 15.4359V16.2429H0.165V15.9502L1.61814 14.3429Z" fill="#313131" stroke="black" stroke-width="0.33"/>
</svg>
