<svg viewBox="0 0 24 24" height="24" width="24"
    xmlns="http://www.w3.org/2000/svg">
    <g transform="matrix(1.7142857142857142,0,0,1.7142857142857142,0,0)">
        <path d="M12,11a.5.5,0,0,0,.41-.786L9.736,6.389A.25.25,0,0,1,9.941,6H11a.5.5,0,0,0,.391-.812l-4-5a.517.517,0,0,0-.782,0l-4,5A.5.5,0,0,0,3,6H4.059a.25.25,0,0,1,.205.394L1.59,10.209A.5.5,0,0,0,2,11H5.75a.25.25,0,0,1,.25.25V13a1,1,0,0,0,2,0v-1.75A.25.25,0,0,1,8.25,11Z" fill="#00dd66" stroke="none" stroke-linecap="round" stroke-linejoin="round" stroke-width="0"></path>
    </g>
</svg>